<?xml version="1.0" standalone="no"?><!DOCTYPE svg PUBLIC "-//W3C//DTD SVG 1.1//EN" "http://www.w3.org/Graphics/SVG/1.1/DTD/svg11.dtd"><svg t="1594092895196" class="icon" viewBox="0 0 1024 1024" version="1.1" xmlns="http://www.w3.org/2000/svg" p-id="2860" xmlns:xlink="http://www.w3.org/1999/xlink" width="200" height="200"><defs><style type="text/css"></style></defs><path d="M875.6 724c0 128.5-162.8 160-363.6 160s-363.6-31.5-363.6-160S311.2 418.6 512 418.6 875.6 595.5 875.6 724z" fill="#515151" p-id="2861" data-spm-anchor-id="a313x.7781069.0.i12" class=""></path><path d="M843.1 763.1c-6.8-0.2-12.7-0.9-17.9-2.1-13.1-3.1-17.6-19.3-8-28.7l0.2-0.2c43.7-44.8 71.7-91 71.2-137.3 0.5-46.3-27.4-92.5-71.2-137.3-44.8-43.7-91-71.7-137.3-71.2-46.3-0.5-92.5 27.4-137.3 71.2-43.7 44.8-71.7 91-71.2 137.3-0.5 46.3 27.4 92.5 71.2 137.3 44.8 43.7 91 71.7 137.3 71.2 19.6 0.2 39.2-4.7 58.7-13.7 4-1.9 8.7-2 12.9-0.6 71.7 25.3 133.6-25 91.4-25.9z" fill="#8a8a8a" p-id="2862" data-spm-anchor-id="a313x.7781069.0.i11" class="selected"></path><path d="M780.2 567.3h-200c-11.4 0-20.7-9.3-20.7-20.7 0-11.4 9.3-20.7 20.7-20.7h200.1c11.4 0 20.7 9.3 20.7 20.7-0.1 11.5-9.3 20.7-20.8 20.7zM780.2 679.8H648.4c-11.4 0-20.7-9.3-20.7-20.7 0-11.4 9.3-20.7 20.7-20.7h131.8c11.4 0 20.7 9.3 20.7 20.7 0 11.5-9.2 20.7-20.7 20.7z" fill="#FFFFFF" p-id="2863"></path><path d="M551.4 306.5c-53.9-52.6-109.5-86.3-165.2-85.6-55.7-0.6-111.3 33-165.2 85.6-52.6 53.9-86.3 109.5-85.6 165.2-0.5 43.4 19.9 86.8 53.8 129.4 18.8 23.6 4.1 58.7-26 61.6-0.3 0-0.6 0.1-0.9 0.1-53.2 4.8 21.4 59.9 108.6 32.5 9.8-3.1 20.5-2 29.5 2.9 28.4 15.8 57.1 24.6 85.8 24.3 55.7 0.6 111.3-33 165.2-85.6C604 583 637.7 527.4 637 471.7c0.6-55.7-33-111.4-85.6-165.2z" fill="#bfbfbf" p-id="2864" data-spm-anchor-id="a313x.7781069.0.i10" class=""></path><path d="M494.4 379.8H278c-11.4 0-20.7-9.3-20.7-20.7 0-11.4 9.3-20.7 20.7-20.7h216.4c11.4 0 20.7 9.3 20.7 20.7 0 11.4-9.3 20.7-20.7 20.7zM494.8 492.3H278.4c-11.4 0-20.7-9.3-20.7-20.7 0-11.4 9.3-20.7 20.7-20.7h216.4c11.4 0 20.7 9.3 20.7 20.7 0 11.4-9.3 20.7-20.7 20.7zM383.3 604.8H278.4c-11.4 0-20.7-9.3-20.7-20.7 0-11.4 9.3-20.7 20.7-20.7h104.8c11.4 0 20.7 9.3 20.7 20.7 0 11.5-9.2 20.7-20.6 20.7z" fill="#0091F1" p-id="2865"></path></svg>